<svg width="30" height="30" viewBox="0 0 30 30" fill="none" xmlns="http://www.w3.org/2000/svg">
<path d="M15.2369 0.000111815C15.1984 0.000111815 15.162 0.0104965 15.1256 0.0104965C15.0123 0.00703494 14.9 -0.00104203 14.7856 0.000111815H15.2369ZM15.0615 18.7777C15.0412 18.7777 15.023 18.7743 15.0027 18.7743C14.9877 18.7743 14.9738 18.7777 14.9588 18.7777H15.0615ZM8.70112 11.8685C8.71716 11.8651 8.72892 11.8466 8.74603 11.842C9.75227 15.7708 12.3572 18.7108 15.0037 18.7731C17.414 18.6531 20.3739 15.7662 21.3598 11.857C21.8132 11.887 22.2666 11.3101 22.3939 10.507C22.5254 9.66931 22.2495 8.92162 21.7822 8.83508C21.7523 8.82931 21.7213 8.85008 21.6924 8.85123C21.5566 2.38626 18.71 0.106265 15.1256 0.00818881C11.429 0.0278041 8.11941 2.79933 8.329 8.85354C8.29371 8.85354 8.26056 8.82931 8.22634 8.83623C7.75691 8.92277 7.48316 9.67046 7.61469 10.5081C7.743 11.3435 8.23062 11.9528 8.70112 11.8685ZM19.9836 19.8958L16.6248 26.9873L16.0945 22.3754L16.9232 21.6416H14.915H13.079L13.9088 22.3754L13.3773 26.9873L10.0228 19.8958C4.18856 20.7439 0 23.4416 0 30H30C30.0021 23.4404 25.8146 20.745 19.9836 19.8958Z" fill="#2396D3"/>
</svg>
